PathFileType	4	(X/Y/Z)	C:/Users/opensim2020/Desktop/walking_exp_matlab/subject06_walking20_straight_01.trc	
DataRate	CameraRate	NumFrames	NumMarkers	Units	OrigDataRate	OrigDataStartFrame	OrigNumFrames	
100.00	100.00	4	43	mm	100.00	812	127	
Frame#	Time	LFHD			RFHD			LBHD			RBHD			C7			T10			CLAV			STRN			RBAK			LSHO			LUPA			LELB			LFRM			LWRA			LWRB			LFIN			RSHO			RUPA			RELB			RFRM			RWRA			RWRB			RFIN			LASI			RASI			LPSI			RPSI			LTHI			LKNE			LTIB			LANK			LHEE			LTOE			RTHI			RKNE			RTIB			RANK			RHEE			RTOE			*39			*40			*41			*42			
		X1	Y1	Z1	X2	Y2	Z2	X3	Y3	Z3	X4	Y4	Z4	X5	Y5	Z5	X6	Y6	Z6	X7	Y7	Z7	X8	Y8	Z8	X9	Y9	Z9	X10	Y10	Z10	X11	Y11	Z11	X12	Y12	Z12	X13	Y13	Z13	X14	Y14	Z14	X15	Y15	Z15	X16	Y16	Z16	X17	Y17	Z17	X18	Y18	Z18	X19	Y19	Z19	X20	Y20	Z20	X21	Y21	Z21	X22	Y22	Z22	X23	Y23	Z23	X24	Y24	Z24	X25	Y25	Z25	X26	Y26	Z26	X27	Y27	Z27	X28	Y28	Z28	X29	Y29	Z29	X30	Y30	Z30	X31	Y31	Z31	X32	Y32	Z32	X33	Y33	Z33	X34	Y34	Z34	X35	Y35	Z35	X36	Y36	Z36	X37	Y37	Z37	X38	Y38	Z38	X39	Y39	Z39	X40	Y40	Z40	X41	Y41	Z41	X42	Y42	Z42	X43	Y43	Z43	

80	0.790	-1078.31396	144.74025	1640.86731	-947.81757	131.73358	1624.48193	-1095.01807	14.10723	1585.11584	-966.85443	2.31824	1573.38916	-1041.68103	9.29164	1427.59448	-1021.63538	-33.03278	1100.72864	-1032.14050	116.75106	1346.84338	-1038.08228	151.17757	1171.17126	-967.43378	-73.44927	1260.52576	-1196.27588	71.46223	1380.52002	-1278.79749	97.08423	1185.80286	-1300.31445	118.06908	1076.39490	-1317.80273	217.00060	964.21588	-1265.11902	328.35913	908.44336	-1306.46204	287.35019	868.11597	-1303.85950	369.68936	832.73145	-874.63037	59.74593	1382.25305	-790.68451	-28.98052	1202.69397	-777.25104	-51.05410	1081.39478	-757.68134	-72.60870	963.03644	-787.12433	-62.42691	808.63934	-745.52441	-110.34566	830.55511	-743.35376	-103.28780	745.55701	-1136.11523	133.67928	936.73529	-916.13043	145.83701	944.05212	-1095.59094	-21.06160	968.88593	-928.29962	-3.81799	966.40845	-1182.81519	25.92708	629.49445	-1156.85352	-7.32049	467.47675	-1144.81909	-129.25053	237.48474	-1097.15515	-196.89859	79.53098	-1053.81470	-243.62456	76.50145	-1087.73267	-61.05849	33.49556	-849.56433	174.93823	620.36261	-880.97827	236.36517	511.28540	-881.43616	283.88910	256.20963	-922.73901	340.94968	78.54269	-970.97760	314.40833	44.52200	-914.38879	493.76291	85.51927	-1028.69189	38.63038	1675.39941									 
81	0.800	-1077.03015	158.46356	1638.65466	-946.62061	145.39662	1622.18896	-1093.94739	27.88098	1582.58350	-965.69293	16.03418	1570.87659	-1040.58984	23.31342	1425.11560	-1021.03326	-18.77368	1098.03723	-1031.14661	130.94203	1344.40442	-1037.59790	165.40576	1168.76428	-966.66541	-59.19279	1257.53345	-1195.28955	85.50163	1378.42810	-1278.16797	112.63676	1184.01587	-1299.63037	134.84631	1074.97058	-1316.98486	236.87195	965.91907	-1263.91309	349.80151	914.15326	-1305.07410	310.37955	872.29926	-1302.44165	393.92447	840.05487	-873.58575	73.80177	1379.48340	-790.09235	-15.76931	1200.21680	-776.49542	-38.09054	1078.95947	-756.88922	-60.37516	960.73309	-784.99280	-49.72315	806.52325	-744.72058	-99.06077	828.39233	-742.53357	-92.57156	743.43005	-1136.18225	147.85345	934.69092	-916.39960	161.72130	942.04962	-1094.62732	-6.77990	966.01886	-927.43463	11.62838	963.73676	-1182.89185	37.57711	628.13617	-1157.06067	1.87047	466.38507	-1144.74329	-124.57487	238.63055	-1097.34058	-195.66284	82.04913	-1054.02954	-242.47656	80.01838	-1087.52014	-61.09293	33.23320	-848.18866	190.96895	617.95111	-879.83246	251.37236	507.98441	-881.25916	306.14157	255.15114	-922.81293	370.45523	80.09956	-971.24176	345.35599	45.42684	-913.70905	523.49951	91.86177	-1027.54639	52.19539	1672.84924									 
82	0.810	-1075.79736	172.25955	1636.48523	-945.30743	159.01007	1619.79114	-1092.72876	41.68003	1580.05005	-964.53040	29.87559	1568.20532	-1039.40198	37.43229	1422.61023	-1020.37012	-4.18228	1095.34583	-1030.10242	145.30093	1341.98926	-1037.02930	179.92990	1166.48010	-965.81555	-44.91990	1254.63940	-1194.21899	99.63183	1376.35522	-1277.33118	128.09036	1182.26208	-1299.33167	151.76913	1073.73987	-1316.05200	256.30621	967.63385	-1262.60535	370.65259	919.72449	-1303.63855	332.62537	876.37915	-1300.90149	417.19174	847.09485	-872.44275	87.98358	1376.69409	-789.37000	-2.07636	1197.64661	-775.61975	-24.79047	1076.44788	-755.97205	-47.59032	958.30957	-783.71039	-37.45276	804.09039	-744.01373	-87.17271	826.25409	-741.56134	-81.02338	741.21429	-1136.27698	162.24529	932.70020	-916.57025	177.86961	940.12537	-1093.55383	7.74726	963.13513	-926.49054	27.35331	961.21106	-1182.94971	49.69731	626.58069	-1157.10803	11.97920	465.05984	-1144.69409	-119.24774	239.99457	-1097.64319	-194.09492	84.94209	-1054.49072	-240.90976	83.95016	-1087.37842	-60.79657	33.21858	-847.06232	207.83676	616.06702	-878.47571	266.73611	504.94138	-880.97986	327.28824	254.22871	-922.70996	397.03278	81.43603	-971.11353	373.03952	46.24969	-914.10522	550.35992	97.24702	-1026.26563	65.78759	1670.35315									 
83	0.820	-1074.32263	186.00885	1634.54871	-943.81873	172.67856	1617.46326	-1091.30298	55.47254	1577.63928	-963.16101	43.68811	1565.65674	-1038.03760	51.52060	1420.20752	-1019.75690	10.56598	1092.79480	-1028.94006	159.64973	1339.76062	-1036.35107	194.56935	1164.31824	-964.96124	-30.40512	1251.77722	-1193.00647	113.80710	1374.20581	-1276.41687	143.54843	1180.58594	-1298.56555	168.12180	1072.43616	-1315.14954	275.31525	969.32825	-1261.21606	390.70886	924.90759	-1302.07898	354.03885	880.31268	-1299.33179	439.55292	853.85400	-871.18628	102.25177	1373.96289	-788.51550	11.74253	1195.02991	-774.61945	-11.14613	1073.85828	-754.99292	-34.43281	955.80890	-782.43488	-24.72684	801.55359	-742.72223	-74.43318	824.00183	-740.38367	-68.89479	738.94824	-1136.38416	176.80467	930.68671	-916.67468	194.11288	938.21118	-1092.45764	22.53158	960.29523	-925.46259	43.26150	958.87469	-1182.80090	62.35096	624.77472	-1157.03735	23.11491	463.54486	-1144.80615	-113.33884	241.40501	-1098.19666	-192.07899	88.32791	-1055.32190	-238.89294	88.48790	-1087.18225	-60.45326	33.18649	-846.32465	225.57024	614.55664	-877.71161	282.22534	502.75708	-880.44940	347.23175	253.57483	-922.43848	420.39691	82.07962	-970.45099	397.10565	46.13238	-914.89716	573.76349	101.34132	-1024.79822	79.25702	1667.89441									 
